<?xml version="1.0" encoding="iso-8859-1"?>
<!-- Generator: Adobe Illustrator 16.0.0, SVG Export Plug-In . SVG Version: 6.00 Build 0)  -->
<!DOCTYPE svg PUBLIC "-//W3C//DTD SVG 1.1//EN" "http://www.w3.org/Graphics/SVG/1.1/DTD/svg11.dtd">
<svg version="1.1" id="Capa_1" xmlns="http://www.w3.org/2000/svg" xmlns:xlink="http://www.w3.org/1999/xlink" x="0px" y="0px"
	 width="342.219px" height="342.219px" viewBox="0 0 342.219 342.219" style="enable-background:new 0 0 342.219 342.219;"
	 xml:space="preserve">
<g>
	<g>
		<path d="M328.914,0.002H13.305C5.957,0.002,0,5.959,0,13.307V328.91c0,7.35,5.958,13.307,13.305,13.307h315.609
			c7.348,0,13.305-5.957,13.305-13.307V13.306C342.219,5.959,336.262,0.002,328.914,0.002z M315.609,315.605h-289V26.611h289
			V315.605z"/>
		<path d="M180.52,107.507c-4.988-4.99-13.825-4.99-18.813,0L110.815,158.4c-5.197,5.197-5.197,13.618,0,18.814
			c5.197,5.196,13.623,5.196,18.814,0l28.179-28.182v111.273c0,7.348,5.958,13.305,13.305,13.305
			c7.348,0,13.305-5.957,13.305-13.305V149.033l28.184,28.182c2.596,2.6,6.002,3.898,9.406,3.898c3.402,0,6.812-1.299,9.406-3.898
			c5.197-5.197,5.197-13.617,0-18.814L180.52,107.507z"/>
		<path d="M65.629,81.195h210.963c7.348,0,13.305-5.957,13.305-13.305c0-7.348-5.957-13.305-13.305-13.305H65.629
			c-7.348,0-13.305,5.957-13.305,13.305C52.324,75.238,58.281,81.195,65.629,81.195z"/>
	</g>
</g>
<g>
</g>
<g>
</g>
<g>
</g>
<g>
</g>
<g>
</g>
<g>
</g>
<g>
</g>
<g>
</g>
<g>
</g>
<g>
</g>
<g>
</g>
<g>
</g>
<g>
</g>
<g>
</g>
<g>
</g>
</svg>
